<?xml version="1.0" encoding="utf-8" ?><svg xmlns="http://www.w3.org/2000/svg" xmlns:xlink="http://www.w3.org/1999/xlink" width="905" height="159" viewBox="0 0 905 159"><path fill="#607848" d="M67.8636 16.848C101.785 13.8933 131.696 38.9437 134.722 72.8412C137.749 106.739 112.747 136.686 78.8381 139.781C44.8304 142.884 14.761 117.806 11.7261 83.8101C8.69112 49.8137 33.8435 19.8114 67.8636 16.848ZM112.557 58.0111C100.616 59.5607 89.7833 62.7295 78.7943 67.6362L87.034 74.1677L92.689 72.2958C104.092 68.8 114.36 67.1739 126.27 66.6972C125.397 63.7249 124.57 60.7275 123.513 57.8144C119.841 57.7475 116.222 57.6985 112.557 58.0111ZM72.1254 63.7493C74.2601 62.7245 76.4114 61.7228 78.5025 60.6114C91.1279 54.6127 106.269 50.5374 120.32 50.7858C110.243 36.956 98.1049 26.1489 80.5517 23.4089C76.7509 22.8156 71.9773 22.4385 68.1752 23.1272C53.38 25.1194 40.4455 32.1686 31.2998 44.1208C29.9315 45.9089 28.7223 47.885 27.6354 49.8573C43.9554 50.4131 57.764 56.7017 72.1254 63.7493ZM86.1684 131.973L92.8907 129.689C94.1848 129.055 94.7433 128.996 95.3165 127.644C95.5957 121.291 84.0172 104.697 79.5701 99.8436C63.8034 82.6354 42.9123 73.8178 19.8303 72.4411C19.7677 75.5239 19.6729 78.6097 19.655 81.693C41.2546 83.6042 59.4896 91.2107 73.6466 108.101C79.466 115.081 83.7343 123.219 86.1684 131.973ZM102.291 86.3733C110.763 83.9225 118.207 82.8293 127.064 83.994C127.173 80.592 127.386 77.1574 127.287 73.755C124.363 73.7301 121.432 73.6545 118.516 73.9239C110.1 74.9123 100.504 75.9862 92.8092 79.8407C94.335 81.365 98.3786 86.6867 100.561 86.7347C101.119 86.747 101.76 86.534 102.291 86.3733ZM103.997 92.2441C107.64 97.0882 110.685 102.092 113.524 107.44C114.135 108.59 115.175 111.344 116.194 111.821L116.391 111.547C120.525 104.936 123.408 98.6437 125.525 91.1366C121.29 90.5687 117.245 90.3372 112.969 90.6741C109.969 91.1461 106.978 91.6695 103.997 92.2441ZM110.58 118.33C99.3246 92.9409 80.8359 73.0787 54.5835 62.9521C44.5892 59.0969 34.525 56.8045 23.809 56.4572L21.021 65.746C46.3519 67.5399 68.8915 76.8552 85.7828 96.3246C93.0918 104.593 98.5802 114.305 101.892 124.831L105.5 122.401L110.58 118.33ZM26.0161 106.215C34.6367 119.531 44.8034 127.554 60.1897 131.801C54.3577 120.107 46.7295 112.436 34.1002 108.199C31.4588 107.337 28.7566 106.674 26.0161 106.215ZM20.378 88.7264C21.3718 92.2683 22.369 95.7823 23.6171 99.2454C38.1294 100.992 50.4439 105.611 59.7646 117.493C63.3997 122.126 66.1216 127.732 67.7519 133.392C71.4887 133.361 75.2385 133.392 78.9699 133.175C74.0768 117.107 63.5975 104.514 48.7524 96.5992C39.9616 91.989 30.2885 89.305 20.378 88.7264Z"/><path fill="#607848" d="M621.305 38.3664C643.129 35.007 663.544 49.9713 666.896 71.7854C670.249 93.5995 655.268 113.998 633.442 117.34C611.627 120.68 591.232 105.718 587.882 83.9162C584.531 62.1144 599.493 41.724 621.305 38.3664ZM631.798 102.126C645.277 99.6458 654.196 86.7176 651.724 73.2433C649.251 59.769 636.322 50.8458 622.839 53.308C609.343 55.7726 600.405 68.7099 602.88 82.1972C605.355 95.6844 618.305 104.609 631.798 102.126Z"/><path fill="#607848" d="M331.861 38.406C353.526 35.6231 373.384 50.8186 376.35 72.4485C379.315 94.0784 364.278 114.053 342.663 117.198C320.79 120.38 300.515 105.133 297.515 83.2454C294.514 61.3582 309.938 41.222 331.861 38.406ZM341.333 102.101C354.794 99.6628 363.728 86.7771 361.284 73.3233C358.841 59.8694 345.946 50.9441 332.486 53.3899C319.031 55.8348 310.105 68.7169 312.547 82.1658C314.99 95.6146 327.876 104.539 341.333 102.101Z"/><path fill="#607848" d="M713.015 93.7176C715.663 86.9501 732.746 41.4991 735.268 39.7574C738.571 37.4761 748.464 38.411 752.361 39.0464C753.914 46.6619 752.984 58.644 752.992 66.6532C753.007 83.1634 753.31 99.7367 752.856 116.24C747.982 116.706 742.984 116.593 738.106 116.231C737.656 105.737 737.982 95.1471 738.035 84.642C737.906 79.9823 737.98 75.2987 737.958 70.636C734.004 80.194 730.12 89.7807 726.306 99.3951C724.074 105.015 722.083 110.921 719.27 116.277C714.966 116.762 710.453 116.607 706.136 116.333C703.553 110.845 701.59 104.948 699.322 99.3132C695.429 89.6389 691.362 80.0208 687.674 70.267C687.614 85.5309 688.555 101.167 687.551 116.375C682.72 116.533 677.878 116.431 673.045 116.382C672.56 106.527 672.905 96.527 672.896 86.6537C672.88 70.7539 672.74 54.8422 672.94 38.944L684.341 38.6267C686.085 38.5648 688.142 38.3174 689.764 39.0667C690.674 39.4872 691.215 40.8287 691.627 41.6989C694.336 47.4187 696.408 53.5622 698.832 59.4225C703.643 70.8196 708.371 82.2516 713.015 93.7176Z"/><path fill="#607848" d="M483.313 37.741C487.948 37.8893 492.342 38.4659 496.724 40.0773C501.971 42.0066 511.023 46.8481 513.423 52.1705C513.971 53.3865 514.116 54.6911 513.628 55.9482C512.248 59.5047 507.099 62.261 503.78 63.7524C500.505 60.3591 497.307 57.0008 493.005 54.8922C487.674 52.2792 481.39 52.1061 475.81 54.0348C469.943 56.0706 465.144 60.3858 462.502 66.004C459.383 72.6029 459.017 80.17 461.483 87.0389C463.574 92.92 467.7 98.0698 473.406 100.763C478.54 103.186 485.045 103.64 490.408 101.706C496.864 99.3779 500.352 94.6611 503.158 88.6652C499.625 88.3796 484.718 89.5275 482.66 87.6814C481.708 86.8274 481.574 83.4432 481.523 82.2027C481.433 79.9842 481.115 75.8847 482.687 74.1845C485.112 73.366 488.144 73.6758 490.69 73.685C499.728 73.7339 508.778 73.3498 517.809 73.8278C518.203 81.4899 518.05 89.2562 518.097 96.9322C518.137 103.372 518.464 109.983 517.944 116.4C515.032 116.521 512.04 116.884 509.131 116.829C507.614 116.801 505.701 116.382 504.624 115.229C503.519 114.045 503.844 112.095 503.891 110.584C498.171 114.717 491.827 117.164 484.744 117.548C474.823 118.086 465.473 114.87 458.089 108.22C450.215 101.237 445.463 91.3973 444.892 80.8923C444.297 69.4728 447.297 58.7627 455.048 50.1815C462.585 41.8376 472.311 38.2892 483.313 37.741Z"/><path fill="#607848" d="M196.965 38.0994C200.104 37.93 203.278 37.7112 206.414 38.0088C216.22 38.9397 225.953 43.9381 232.226 51.59C233.12 52.6807 233.659 53.634 233.515 55.0753C231.888 58.723 226.151 61.8467 222.677 63.5504C218.2 59.7622 215.58 56.1232 209.83 54.0264C204.147 51.9103 197.852 52.1593 192.354 54.7176C186.545 57.4327 182.169 62.4859 179.994 68.4847C177.514 75.2698 177.817 82.7589 180.835 89.3222C183.451 94.9037 188.003 99.3871 193.848 101.482C199.448 103.489 206.435 103.326 211.832 100.756C217.193 98.2037 219.953 93.9209 221.879 88.4954C218.005 88.2581 206.367 89.3584 203.828 88.4851C202.843 88.1465 202.135 87.5273 201.68 86.5913C200.643 84.4579 200.332 77.3141 201.157 75.1299C201.497 74.2315 202.044 74.1473 202.845 73.7915C213.953 73.7908 225.067 73.6583 236.174 73.7735C236.971 79.9724 236.566 86.7221 236.602 92.9846C236.647 100.752 237.107 108.795 236.349 116.525C231.856 116.495 227.394 116.382 222.908 116.107C222.574 114.393 222.405 112.632 222.182 110.9C218.088 114.148 213.491 116.119 208.339 117.009C198.438 118.72 188.134 116.939 179.89 111.088C171.272 104.973 165.459 95.6673 163.746 85.2436C161.93 74.4402 164.17 62.9698 170.569 54.0058C177.144 44.7959 185.971 39.9404 196.965 38.0994Z"/><path fill="#607848" d="M525.494 38.9855C530.885 38.5343 536.509 38.8648 541.929 38.8034C548.389 38.7303 555.077 38.2129 561.502 38.7619C564.153 38.9885 566.811 39.4762 569.305 40.4238C574.97 42.5218 579.553 46.8102 582.019 52.3226C584.745 58.4006 584.671 65.6411 582.308 71.8218C579.539 79.0627 574.449 82.9607 567.605 86.0287C571.768 90.5002 583.823 105.966 586.442 110.961C587.236 112.475 587.733 113.754 587.212 115.423C583.998 117.463 575.672 116.543 571.84 116.326C567.693 111.852 564.088 106.507 560.424 101.624C555.033 94.4396 549.487 87.3032 544.425 79.8833C545.633 77.4004 547.299 75.2728 549.111 73.2092C553.313 72.5706 557.667 73.1243 561.831 72.0528C564.303 71.4164 566.568 70.1373 567.878 67.8663C569.079 65.7828 569.617 62.4656 568.96 60.1136C568.225 57.4826 566.29 55.6616 563.988 54.3548C557.922 51.8473 547.172 53.4854 540.476 53.1643L540.598 93.4883C540.399 101.129 541.012 108.793 540.399 116.423C535.46 116.54 530.518 116.557 525.578 116.474C524.721 106.561 525.361 96.0916 525.348 86.1097C525.326 70.4334 524.941 54.6486 525.494 38.9855Z"/><path fill="#607848" d="M787.315 38.6266C792.023 38.4424 796.893 38.3337 801.587 38.7625L801.696 38.9246C805.926 45.2573 810.113 59.3549 813.049 66.8404L823.478 93.6809C825.48 98.7383 827.808 103.742 829.534 108.898C830.133 110.689 831.177 113.506 830.8 115.388C827.724 117.488 819.4 116.402 815.637 116.166L808.895 98.5572L801.614 98.3642C794.142 98.2887 786.669 98.3039 779.198 98.4099C776.63 104.321 774.728 110.5 771.868 116.293C768.502 116.449 764.953 116.821 761.595 116.589C759.944 116.475 758.469 116.29 757.352 114.998C757.486 113.911 757.693 112.834 757.969 111.774C759.148 107.324 761.104 102.994 762.771 98.7044L771.383 76.6116L780.367 53.4366C781.92 49.4084 783.316 45.1236 785.142 41.2215C785.677 40.0774 786.205 39.2724 787.315 38.6266ZM795.154 85.2467L804.292 85.2251C802.906 81.5901 795.564 60.623 793.931 59.1109L784.073 85.0925L795.154 85.2467Z"/><path fill="#607848" d="M404.776 38.6311C409.429 38.4442 414.087 38.4458 418.74 38.636C419.057 39.189 419.364 39.7486 419.658 40.3143C421.521 43.8832 422.808 47.9042 424.275 51.6652L432.494 72.8521C437.086 84.7164 442.459 96.4881 446.647 108.464C447.24 110.159 448.723 113.782 448.175 115.517C444.985 117.542 437.014 116.362 433.185 116.118C430.565 110.444 428.313 104.607 426.443 98.6439C423.734 98.4494 420.979 98.4779 418.261 98.4139L396.133 98.4208C393.799 104.432 391.371 110.407 388.85 116.342C385.014 116.444 377.719 117.457 374.433 115.661C373.927 114.263 375.067 111.293 375.525 109.904C378.062 102.209 381.42 94.6312 384.418 87.093C389.668 74.0451 394.809 60.9529 399.838 47.818C400.786 45.3643 402.246 39.7502 404.776 38.6311ZM411.263 85.2379L421.249 85.1952C419.162 79.6209 413.751 62.9367 411.081 59.0482C407.799 67.7099 404.733 76.5698 401.099 85.0887L411.263 85.2379Z"/><path fill="#607848" d="M841.368 38.6361C853.37 38.8661 872.656 36.2168 882.799 42.7843C888.259 46.3788 892.066 51.9934 893.385 58.3934C894.8 65.107 893.731 72.7316 889.941 78.5157C886.318 84.0475 880.579 87.5524 874.165 88.8859C869.831 89.787 862.315 90.8649 858.444 88.268C857.028 87.3183 855.991 85.9235 855.675 84.2327C855.329 82.3808 855.658 80.1128 856.743 78.5471C859.643 74.3632 865.969 75.4633 870.339 74.6323C873.198 74.0888 876.061 72.6312 877.715 70.171C879.68 67.2475 879.419 63.3164 878.764 60.0386C878.012 58.5908 877.252 57.2146 876.031 56.0968C870.466 51.0028 858.06 53.118 851.031 53.4107C850.783 74.3878 851.546 95.4398 850.862 116.402C845.984 116.708 841.009 116.521 836.119 116.52C835.296 105.006 835.714 93.3358 835.76 81.7953L835.727 38.9073L841.368 38.6361Z"/><path fill="#607848" d="M244.001 38.9143C261.031 38.7617 278.063 38.7704 295.094 38.9405C295.17 43.685 295.162 48.387 294.92 53.1267C282.759 52.9993 270.564 53.3786 258.398 53.4427C258.563 69.6184 258.316 85.7966 258.665 101.971L274.786 102.027C281.593 101.969 288.4 102.026 295.205 102.199C295.635 106.9 295.459 111.688 295.261 116.397C278.184 116.445 261.106 116.407 244.029 116.283C243.102 106.043 243.912 95.039 243.901 84.7233C243.884 69.5264 243.228 54.0724 244.001 38.9143Z"/><path fill="#607848" d="M266.746 69.9558C274.913 69.6756 283.109 69.8334 291.279 69.9204C291.522 73.6196 292.391 80.4753 290.87 83.8125L289.91 84.0148C282.179 84.6331 273.142 84.9531 265.464 83.899C264.977 80.5712 264.231 74.3249 265.304 71.2027C265.598 70.3476 265.976 70.3182 266.746 69.9558Z"/></svg>